# xmcd
#
# Track frame offsets:
#	150
#	14166
#	33022
#	54613
#	67377
#	81747
#	100873
#	115650
#	131638
#	145955
#	160664
#	176255
#
# Disc length: 2569 seconds
#
# Revision: 1
# Processed by: cddbd v1.5.1PL2 Copyright (c) Steve Scherf et al.
# Submitted via: audiograbber 1.83.01
#
DISCID=a80a070c
DTITLE=Sunset - Country Band - Just in time
DYEAR=1996
DGENRE=Country
TTITLE0=She don't know she's beautiful
TTITLE1=Peaceful easy feeling
TTITLE2=All you ever do is bring me down
TTITLE3=Tequila sunrise
TTITLE4=Let your love flow
TTITLE5=Ticket to heaven
TTITLE6=Is anybody going to san antone
TTITLE7=Rib of the knob
TTITLE8=There goes my heart
TTITLE9=Thank God for the radio
TTITLE10=Forget about me
TTITLE11=The dance
EXTD=
EXTT0=
EXTT1=
EXTT2=
EXTT3=
EXTT4=
EXTT5=
EXTT6=
EXTT7=
EXTT8=
EXTT9=
EXTT10=
EXTT11=
PLAYORDER=
